<?xml version="1.0" standalone="no"?>
<!DOCTYPE svg PUBLIC "-//W3C//DTD SVG 20010904//EN"
 "http://www.w3.org/TR/2001/REC-SVG-20010904/DTD/svg10.dtd">
<svg version="1.0" xmlns="http://www.w3.org/2000/svg"
 width="168.000000pt" height="168.000000pt" viewBox="0 0 168.000000 168.000000"
 preserveAspectRatio="xMidYMid meet">
<metadata>
Created by potrace 1.14, written by Peter Selinger 2001-2017
</metadata>
<g transform="translate(0.000000,168.000000) scale(0.100000,-0.100000)"
fill="#000000" stroke="none">
<path d="M230 1610 c-68 -19 -135 -74 -166 -138 -18 -35 -19 -72 -19 -627 0
-659 -3 -625 71 -699 74 -74 41 -71 703 -74 679 -3 659 -5 741 77 74 75 73 65
73 705 0 550 0 562 -21 609 -25 56 -77 110 -130 134 -33 15 -96 17 -632 18
-327 1 -606 -1 -620 -5z"/>
</g>
</svg>
